%FSLAX45Y45*%
G04 Gerber Fmt 4.5, Leading zero omitted, Abs format (unit mm)*
G04 Created by KiCad (PCBNEW (6.0.2)) date 2022-07-31 16:51:35*
%MOMM*%
%LPD*%
G01*
G04 APERTURE LIST*
%TA.AperFunction,Profile*%
%ADD10C,0.200000*%
%TD*%
%ADD11C,0.200000*%
%ADD12C,0.040000*%
%ADD13C,0.060000*%
%ADD14C,0.080000*%
%ADD15C,0.100000*%
%ADD16C,0.320000*%
G04 APERTURE END LIST*
D10*
X12500000Y-10000000D02*
G75*
G03*
X12750000Y-10250000I250000J0D01*
G01*
X16250000Y-10250000D02*
G75*
G03*
X16500000Y-10000000I0J250000D01*
G01*
X16500000Y-7750000D02*
G75*
G03*
X16250000Y-7500000I-250000J0D01*
G01*
X12750000Y-7500000D02*
G75*
G03*
X12500000Y-7750000I0J-250000D01*
G01*
X12500000Y-10000000D02*
X12500000Y-7750000D01*
X16250000Y-10250000D02*
X12750000Y-10250000D01*
X16500000Y-7750000D02*
X16500000Y-10000000D01*
X12750000Y-7500000D02*
X16250000Y-7500000D01*
D11*
D12*
X13700232Y-9160825D02*
X13740232Y-9200825D01*
X13740232Y-9160825D02*
X13700232Y-9200825D01*
X15107175Y-8481877D02*
X15147175Y-8521877D01*
X15147175Y-8481877D02*
X15107175Y-8521877D01*
D13*
X13174323Y-8948823D02*
G75*
G03*
X13174323Y-8948823I-30000J0D01*
G01*
D14*
X13491825Y-8832057D02*
X13491825Y-8912057D01*
X13451825Y-8872057D02*
X13531825Y-8872057D01*
X14253825Y-8832057D02*
X14253825Y-8912057D01*
X14213825Y-8872057D02*
X14293825Y-8872057D01*
X14750965Y-8832825D02*
X14750965Y-8912825D01*
X14710965Y-8872825D02*
X14790965Y-8872825D01*
X15512965Y-8832825D02*
X15512965Y-8912825D01*
X15472965Y-8872825D02*
X15552965Y-8872825D01*
D15*
X14038456Y-9535356D02*
X14038456Y-9464644D01*
X13967744Y-9464644D01*
X13967744Y-9535356D01*
X14038456Y-9535356D01*
X14038456Y-9931356D02*
X14038456Y-9860644D01*
X13967744Y-9860644D01*
X13967744Y-9931356D01*
X14038456Y-9931356D01*
X14049356Y-7889356D02*
X14049356Y-7818644D01*
X13978644Y-7818644D01*
X13978644Y-7889356D01*
X14049356Y-7889356D01*
X14049356Y-8285356D02*
X14049356Y-8214644D01*
X13978644Y-8214644D01*
X13978644Y-8285356D01*
X14049356Y-8285356D01*
X14152956Y-9733356D02*
X14152956Y-9662644D01*
X14082244Y-9662644D01*
X14082244Y-9733356D01*
X14152956Y-9733356D01*
X14163856Y-8087356D02*
X14163856Y-8016644D01*
X14093144Y-8016644D01*
X14093144Y-8087356D01*
X14163856Y-8087356D01*
X14267456Y-9535356D02*
X14267456Y-9464644D01*
X14196744Y-9464644D01*
X14196744Y-9535356D01*
X14267456Y-9535356D01*
X14267456Y-9931356D02*
X14267456Y-9860644D01*
X14196744Y-9860644D01*
X14196744Y-9931356D01*
X14267456Y-9931356D01*
X14278356Y-7889356D02*
X14278356Y-7818644D01*
X14207644Y-7818644D01*
X14207644Y-7889356D01*
X14278356Y-7889356D01*
X14278356Y-8285356D02*
X14278356Y-8214644D01*
X14207644Y-8214644D01*
X14207644Y-8285356D01*
X14278356Y-8285356D01*
X14381956Y-9733356D02*
X14381956Y-9662644D01*
X14311244Y-9662644D01*
X14311244Y-9733356D01*
X14381956Y-9733356D01*
X14392856Y-8087356D02*
X14392856Y-8016644D01*
X14322144Y-8016644D01*
X14322144Y-8087356D01*
X14392856Y-8087356D01*
X14496456Y-9535356D02*
X14496456Y-9464644D01*
X14425744Y-9464644D01*
X14425744Y-9535356D01*
X14496456Y-9535356D01*
X14496456Y-9931356D02*
X14496456Y-9860644D01*
X14425744Y-9860644D01*
X14425744Y-9931356D01*
X14496456Y-9931356D01*
X14507356Y-7889356D02*
X14507356Y-7818644D01*
X14436644Y-7818644D01*
X14436644Y-7889356D01*
X14507356Y-7889356D01*
X14507356Y-8285356D02*
X14507356Y-8214644D01*
X14436644Y-8214644D01*
X14436644Y-8285356D01*
X14507356Y-8285356D01*
X14610956Y-9733356D02*
X14610956Y-9662644D01*
X14540244Y-9662644D01*
X14540244Y-9733356D01*
X14610956Y-9733356D01*
X14621856Y-8087356D02*
X14621856Y-8016644D01*
X14551144Y-8016644D01*
X14551144Y-8087356D01*
X14621856Y-8087356D01*
X14725456Y-9535356D02*
X14725456Y-9464644D01*
X14654744Y-9464644D01*
X14654744Y-9535356D01*
X14725456Y-9535356D01*
X14725456Y-9931356D02*
X14725456Y-9860644D01*
X14654744Y-9860644D01*
X14654744Y-9931356D01*
X14725456Y-9931356D01*
X14736356Y-7889356D02*
X14736356Y-7818644D01*
X14665644Y-7818644D01*
X14665644Y-7889356D01*
X14736356Y-7889356D01*
X14736356Y-8285356D02*
X14736356Y-8214644D01*
X14665644Y-8214644D01*
X14665644Y-8285356D01*
X14736356Y-8285356D01*
X14839956Y-9733356D02*
X14839956Y-9662644D01*
X14769244Y-9662644D01*
X14769244Y-9733356D01*
X14839956Y-9733356D01*
X14850856Y-8087356D02*
X14850856Y-8016644D01*
X14780144Y-8016644D01*
X14780144Y-8087356D01*
X14850856Y-8087356D01*
X14954456Y-9535356D02*
X14954456Y-9464644D01*
X14883744Y-9464644D01*
X14883744Y-9535356D01*
X14954456Y-9535356D01*
X14954456Y-9931356D02*
X14954456Y-9860644D01*
X14883744Y-9860644D01*
X14883744Y-9931356D01*
X14954456Y-9931356D01*
X14965356Y-7889356D02*
X14965356Y-7818644D01*
X14894644Y-7818644D01*
X14894644Y-7889356D01*
X14965356Y-7889356D01*
X14965356Y-8285356D02*
X14965356Y-8214644D01*
X14894644Y-8214644D01*
X14894644Y-8285356D01*
X14965356Y-8285356D01*
X15068956Y-9733356D02*
X15068956Y-9662644D01*
X14998244Y-9662644D01*
X14998244Y-9733356D01*
X15068956Y-9733356D01*
X15079856Y-8087356D02*
X15079856Y-8016644D01*
X15009144Y-8016644D01*
X15009144Y-8087356D01*
X15079856Y-8087356D01*
D16*
X13237600Y-9865000D02*
X13397600Y-9705000D01*
X13237600Y-9545000D01*
X13077600Y-9705000D01*
X13237600Y-9865000D01*
X13248500Y-8205000D02*
X13408500Y-8045000D01*
X13248500Y-7885000D01*
X13088500Y-8045000D01*
X13248500Y-8205000D01*
X15737600Y-9865000D02*
X15897600Y-9705000D01*
X15737600Y-9545000D01*
X15577600Y-9705000D01*
X15737600Y-9865000D01*
X15748500Y-8205000D02*
X15908500Y-8045000D01*
X15748500Y-7885000D01*
X15588500Y-8045000D01*
X15748500Y-8205000D01*
D11*
X12747619Y-10570476D02*
X12747619Y-10370476D01*
X12795238Y-10370476D01*
X12823809Y-10380000D01*
X12842857Y-10399048D01*
X12852381Y-10418095D01*
X12861905Y-10456190D01*
X12861905Y-10484762D01*
X12852381Y-10522857D01*
X12842857Y-10541905D01*
X12823809Y-10560952D01*
X12795238Y-10570476D01*
X12747619Y-10570476D01*
X12947619Y-10570476D02*
X12947619Y-10437143D01*
X12947619Y-10475238D02*
X12957143Y-10456190D01*
X12966667Y-10446667D01*
X12985714Y-10437143D01*
X13004762Y-10437143D01*
X13071428Y-10570476D02*
X13071428Y-10437143D01*
X13071428Y-10370476D02*
X13061905Y-10380000D01*
X13071428Y-10389524D01*
X13080952Y-10380000D01*
X13071428Y-10370476D01*
X13071428Y-10389524D01*
X13195238Y-10570476D02*
X13176190Y-10560952D01*
X13166667Y-10541905D01*
X13166667Y-10370476D01*
X13300000Y-10570476D02*
X13280952Y-10560952D01*
X13271428Y-10541905D01*
X13271428Y-10370476D01*
X13528571Y-10570476D02*
X13528571Y-10370476D01*
X13595238Y-10513333D01*
X13661905Y-10370476D01*
X13661905Y-10570476D01*
X13842857Y-10570476D02*
X13842857Y-10465714D01*
X13833333Y-10446667D01*
X13814286Y-10437143D01*
X13776190Y-10437143D01*
X13757143Y-10446667D01*
X13842857Y-10560952D02*
X13823809Y-10570476D01*
X13776190Y-10570476D01*
X13757143Y-10560952D01*
X13747619Y-10541905D01*
X13747619Y-10522857D01*
X13757143Y-10503810D01*
X13776190Y-10494286D01*
X13823809Y-10494286D01*
X13842857Y-10484762D01*
X13938095Y-10437143D02*
X13938095Y-10637143D01*
X13938095Y-10446667D02*
X13957143Y-10437143D01*
X13995238Y-10437143D01*
X14014286Y-10446667D01*
X14023809Y-10456190D01*
X14033333Y-10475238D01*
X14033333Y-10532381D01*
X14023809Y-10551429D01*
X14014286Y-10560952D01*
X13995238Y-10570476D01*
X13957143Y-10570476D01*
X13938095Y-10560952D01*
X14119048Y-10551429D02*
X14128571Y-10560952D01*
X14119048Y-10570476D01*
X14109524Y-10560952D01*
X14119048Y-10551429D01*
X14119048Y-10570476D01*
X14119048Y-10446667D02*
X14128571Y-10456190D01*
X14119048Y-10465714D01*
X14109524Y-10456190D01*
X14119048Y-10446667D01*
X14119048Y-10465714D01*
D12*
X12450000Y-10880000D02*
X12490000Y-10920000D01*
X12490000Y-10880000D02*
X12450000Y-10920000D01*
D11*
X12785714Y-10790476D02*
X12804762Y-10790476D01*
X12823809Y-10800000D01*
X12833333Y-10809524D01*
X12842857Y-10828571D01*
X12852381Y-10866667D01*
X12852381Y-10914286D01*
X12842857Y-10952381D01*
X12833333Y-10971429D01*
X12823809Y-10980952D01*
X12804762Y-10990476D01*
X12785714Y-10990476D01*
X12766667Y-10980952D01*
X12757143Y-10971429D01*
X12747619Y-10952381D01*
X12738095Y-10914286D01*
X12738095Y-10866667D01*
X12747619Y-10828571D01*
X12757143Y-10809524D01*
X12766667Y-10800000D01*
X12785714Y-10790476D01*
X12938095Y-10971429D02*
X12947619Y-10980952D01*
X12938095Y-10990476D01*
X12928571Y-10980952D01*
X12938095Y-10971429D01*
X12938095Y-10990476D01*
X13119048Y-10857143D02*
X13119048Y-10990476D01*
X13071428Y-10780952D02*
X13023809Y-10923810D01*
X13147619Y-10923810D01*
X13261905Y-10790476D02*
X13280952Y-10790476D01*
X13300000Y-10800000D01*
X13309524Y-10809524D01*
X13319048Y-10828571D01*
X13328571Y-10866667D01*
X13328571Y-10914286D01*
X13319048Y-10952381D01*
X13309524Y-10971429D01*
X13300000Y-10980952D01*
X13280952Y-10990476D01*
X13261905Y-10990476D01*
X13242857Y-10980952D01*
X13233333Y-10971429D01*
X13223809Y-10952381D01*
X13214286Y-10914286D01*
X13214286Y-10866667D01*
X13223809Y-10828571D01*
X13233333Y-10809524D01*
X13242857Y-10800000D01*
X13261905Y-10790476D01*
X13452381Y-10790476D02*
X13471428Y-10790476D01*
X13490476Y-10800000D01*
X13500000Y-10809524D01*
X13509524Y-10828571D01*
X13519048Y-10866667D01*
X13519048Y-10914286D01*
X13509524Y-10952381D01*
X13500000Y-10971429D01*
X13490476Y-10980952D01*
X13471428Y-10990476D01*
X13452381Y-10990476D01*
X13433333Y-10980952D01*
X13423809Y-10971429D01*
X13414286Y-10952381D01*
X13404762Y-10914286D01*
X13404762Y-10866667D01*
X13414286Y-10828571D01*
X13423809Y-10809524D01*
X13433333Y-10800000D01*
X13452381Y-10790476D01*
X13604762Y-10990476D02*
X13604762Y-10857143D01*
X13604762Y-10876190D02*
X13614286Y-10866667D01*
X13633333Y-10857143D01*
X13661905Y-10857143D01*
X13680952Y-10866667D01*
X13690476Y-10885714D01*
X13690476Y-10990476D01*
X13690476Y-10885714D02*
X13700000Y-10866667D01*
X13719048Y-10857143D01*
X13747619Y-10857143D01*
X13766667Y-10866667D01*
X13776190Y-10885714D01*
X13776190Y-10990476D01*
X13871428Y-10990476D02*
X13871428Y-10857143D01*
X13871428Y-10876190D02*
X13880952Y-10866667D01*
X13900000Y-10857143D01*
X13928571Y-10857143D01*
X13947619Y-10866667D01*
X13957143Y-10885714D01*
X13957143Y-10990476D01*
X13957143Y-10885714D02*
X13966667Y-10866667D01*
X13985714Y-10857143D01*
X14014286Y-10857143D01*
X14033333Y-10866667D01*
X14042857Y-10885714D01*
X14042857Y-10990476D01*
X14433333Y-10780952D02*
X14261905Y-11038095D01*
X14690476Y-10790476D02*
X14709524Y-10790476D01*
X14728571Y-10800000D01*
X14738095Y-10809524D01*
X14747619Y-10828571D01*
X14757143Y-10866667D01*
X14757143Y-10914286D01*
X14747619Y-10952381D01*
X14738095Y-10971429D01*
X14728571Y-10980952D01*
X14709524Y-10990476D01*
X14690476Y-10990476D01*
X14671428Y-10980952D01*
X14661905Y-10971429D01*
X14652381Y-10952381D01*
X14642857Y-10914286D01*
X14642857Y-10866667D01*
X14652381Y-10828571D01*
X14661905Y-10809524D01*
X14671428Y-10800000D01*
X14690476Y-10790476D01*
X14842857Y-10971429D02*
X14852381Y-10980952D01*
X14842857Y-10990476D01*
X14833333Y-10980952D01*
X14842857Y-10971429D01*
X14842857Y-10990476D01*
X14976190Y-10790476D02*
X14995238Y-10790476D01*
X15014286Y-10800000D01*
X15023809Y-10809524D01*
X15033333Y-10828571D01*
X15042857Y-10866667D01*
X15042857Y-10914286D01*
X15033333Y-10952381D01*
X15023809Y-10971429D01*
X15014286Y-10980952D01*
X14995238Y-10990476D01*
X14976190Y-10990476D01*
X14957143Y-10980952D01*
X14947619Y-10971429D01*
X14938095Y-10952381D01*
X14928571Y-10914286D01*
X14928571Y-10866667D01*
X14938095Y-10828571D01*
X14947619Y-10809524D01*
X14957143Y-10800000D01*
X14976190Y-10790476D01*
X15233333Y-10990476D02*
X15119048Y-10990476D01*
X15176190Y-10990476D02*
X15176190Y-10790476D01*
X15157143Y-10819048D01*
X15138095Y-10838095D01*
X15119048Y-10847619D01*
X15414286Y-10790476D02*
X15319048Y-10790476D01*
X15309524Y-10885714D01*
X15319048Y-10876190D01*
X15338095Y-10866667D01*
X15385714Y-10866667D01*
X15404762Y-10876190D01*
X15414286Y-10885714D01*
X15423809Y-10904762D01*
X15423809Y-10952381D01*
X15414286Y-10971429D01*
X15404762Y-10980952D01*
X15385714Y-10990476D01*
X15338095Y-10990476D01*
X15319048Y-10980952D01*
X15309524Y-10971429D01*
X15490476Y-10790476D02*
X15623809Y-10790476D01*
X15538095Y-10990476D01*
X15690476Y-10790476D02*
X15690476Y-10828571D01*
X15766667Y-10790476D02*
X15766667Y-10828571D01*
X16061905Y-11066667D02*
X16052381Y-11057143D01*
X16033333Y-11028571D01*
X16023809Y-11009524D01*
X16014286Y-10980952D01*
X16004762Y-10933333D01*
X16004762Y-10895238D01*
X16014286Y-10847619D01*
X16023809Y-10819048D01*
X16033333Y-10800000D01*
X16052381Y-10771429D01*
X16061905Y-10761905D01*
X16128571Y-10809524D02*
X16138095Y-10800000D01*
X16157143Y-10790476D01*
X16204762Y-10790476D01*
X16223809Y-10800000D01*
X16233333Y-10809524D01*
X16242857Y-10828571D01*
X16242857Y-10847619D01*
X16233333Y-10876190D01*
X16119048Y-10990476D01*
X16242857Y-10990476D01*
X16480952Y-10990476D02*
X16480952Y-10790476D01*
X16566667Y-10990476D02*
X16566667Y-10885714D01*
X16557143Y-10866667D01*
X16538095Y-10857143D01*
X16509524Y-10857143D01*
X16490476Y-10866667D01*
X16480952Y-10876190D01*
X16690476Y-10990476D02*
X16671428Y-10980952D01*
X16661905Y-10971429D01*
X16652381Y-10952381D01*
X16652381Y-10895238D01*
X16661905Y-10876190D01*
X16671428Y-10866667D01*
X16690476Y-10857143D01*
X16719048Y-10857143D01*
X16738095Y-10866667D01*
X16747619Y-10876190D01*
X16757143Y-10895238D01*
X16757143Y-10952381D01*
X16747619Y-10971429D01*
X16738095Y-10980952D01*
X16719048Y-10990476D01*
X16690476Y-10990476D01*
X16871429Y-10990476D02*
X16852381Y-10980952D01*
X16842857Y-10961905D01*
X16842857Y-10790476D01*
X17023810Y-10980952D02*
X17004762Y-10990476D01*
X16966667Y-10990476D01*
X16947619Y-10980952D01*
X16938095Y-10961905D01*
X16938095Y-10885714D01*
X16947619Y-10866667D01*
X16966667Y-10857143D01*
X17004762Y-10857143D01*
X17023810Y-10866667D01*
X17033333Y-10885714D01*
X17033333Y-10904762D01*
X16938095Y-10923810D01*
X17109524Y-10980952D02*
X17128571Y-10990476D01*
X17166667Y-10990476D01*
X17185714Y-10980952D01*
X17195238Y-10961905D01*
X17195238Y-10952381D01*
X17185714Y-10933333D01*
X17166667Y-10923810D01*
X17138095Y-10923810D01*
X17119048Y-10914286D01*
X17109524Y-10895238D01*
X17109524Y-10885714D01*
X17119048Y-10866667D01*
X17138095Y-10857143D01*
X17166667Y-10857143D01*
X17185714Y-10866667D01*
X17261905Y-11066667D02*
X17271429Y-11057143D01*
X17290476Y-11028571D01*
X17300000Y-11009524D01*
X17309524Y-10980952D01*
X17319048Y-10933333D01*
X17319048Y-10895238D01*
X17309524Y-10847619D01*
X17300000Y-10819048D01*
X17290476Y-10800000D01*
X17271429Y-10771429D01*
X17261905Y-10761905D01*
D13*
X12490000Y-11164000D02*
G75*
G03*
X12490000Y-11164000I-30000J0D01*
G01*
D11*
X12785714Y-11054476D02*
X12804762Y-11054476D01*
X12823809Y-11064000D01*
X12833333Y-11073524D01*
X12842857Y-11092571D01*
X12852381Y-11130667D01*
X12852381Y-11178286D01*
X12842857Y-11216381D01*
X12833333Y-11235428D01*
X12823809Y-11244952D01*
X12804762Y-11254476D01*
X12785714Y-11254476D01*
X12766667Y-11244952D01*
X12757143Y-11235428D01*
X12747619Y-11216381D01*
X12738095Y-11178286D01*
X12738095Y-11130667D01*
X12747619Y-11092571D01*
X12757143Y-11073524D01*
X12766667Y-11064000D01*
X12785714Y-11054476D01*
X12938095Y-11235428D02*
X12947619Y-11244952D01*
X12938095Y-11254476D01*
X12928571Y-11244952D01*
X12938095Y-11235428D01*
X12938095Y-11254476D01*
X13119048Y-11054476D02*
X13080952Y-11054476D01*
X13061905Y-11064000D01*
X13052381Y-11073524D01*
X13033333Y-11102095D01*
X13023809Y-11140190D01*
X13023809Y-11216381D01*
X13033333Y-11235428D01*
X13042857Y-11244952D01*
X13061905Y-11254476D01*
X13100000Y-11254476D01*
X13119048Y-11244952D01*
X13128571Y-11235428D01*
X13138095Y-11216381D01*
X13138095Y-11168762D01*
X13128571Y-11149714D01*
X13119048Y-11140190D01*
X13100000Y-11130667D01*
X13061905Y-11130667D01*
X13042857Y-11140190D01*
X13033333Y-11149714D01*
X13023809Y-11168762D01*
X13261905Y-11054476D02*
X13280952Y-11054476D01*
X13300000Y-11064000D01*
X13309524Y-11073524D01*
X13319048Y-11092571D01*
X13328571Y-11130667D01*
X13328571Y-11178286D01*
X13319048Y-11216381D01*
X13309524Y-11235428D01*
X13300000Y-11244952D01*
X13280952Y-11254476D01*
X13261905Y-11254476D01*
X13242857Y-11244952D01*
X13233333Y-11235428D01*
X13223809Y-11216381D01*
X13214286Y-11178286D01*
X13214286Y-11130667D01*
X13223809Y-11092571D01*
X13233333Y-11073524D01*
X13242857Y-11064000D01*
X13261905Y-11054476D01*
X13452381Y-11054476D02*
X13471428Y-11054476D01*
X13490476Y-11064000D01*
X13500000Y-11073524D01*
X13509524Y-11092571D01*
X13519048Y-11130667D01*
X13519048Y-11178286D01*
X13509524Y-11216381D01*
X13500000Y-11235428D01*
X13490476Y-11244952D01*
X13471428Y-11254476D01*
X13452381Y-11254476D01*
X13433333Y-11244952D01*
X13423809Y-11235428D01*
X13414286Y-11216381D01*
X13404762Y-11178286D01*
X13404762Y-11130667D01*
X13414286Y-11092571D01*
X13423809Y-11073524D01*
X13433333Y-11064000D01*
X13452381Y-11054476D01*
X13604762Y-11254476D02*
X13604762Y-11121143D01*
X13604762Y-11140190D02*
X13614286Y-11130667D01*
X13633333Y-11121143D01*
X13661905Y-11121143D01*
X13680952Y-11130667D01*
X13690476Y-11149714D01*
X13690476Y-11254476D01*
X13690476Y-11149714D02*
X13700000Y-11130667D01*
X13719048Y-11121143D01*
X13747619Y-11121143D01*
X13766667Y-11130667D01*
X13776190Y-11149714D01*
X13776190Y-11254476D01*
X13871428Y-11254476D02*
X13871428Y-11121143D01*
X13871428Y-11140190D02*
X13880952Y-11130667D01*
X13900000Y-11121143D01*
X13928571Y-11121143D01*
X13947619Y-11130667D01*
X13957143Y-11149714D01*
X13957143Y-11254476D01*
X13957143Y-11149714D02*
X13966667Y-11130667D01*
X13985714Y-11121143D01*
X14014286Y-11121143D01*
X14033333Y-11130667D01*
X14042857Y-11149714D01*
X14042857Y-11254476D01*
X14433333Y-11044952D02*
X14261905Y-11302095D01*
X14690476Y-11054476D02*
X14709524Y-11054476D01*
X14728571Y-11064000D01*
X14738095Y-11073524D01*
X14747619Y-11092571D01*
X14757143Y-11130667D01*
X14757143Y-11178286D01*
X14747619Y-11216381D01*
X14738095Y-11235428D01*
X14728571Y-11244952D01*
X14709524Y-11254476D01*
X14690476Y-11254476D01*
X14671428Y-11244952D01*
X14661905Y-11235428D01*
X14652381Y-11216381D01*
X14642857Y-11178286D01*
X14642857Y-11130667D01*
X14652381Y-11092571D01*
X14661905Y-11073524D01*
X14671428Y-11064000D01*
X14690476Y-11054476D01*
X14842857Y-11235428D02*
X14852381Y-11244952D01*
X14842857Y-11254476D01*
X14833333Y-11244952D01*
X14842857Y-11235428D01*
X14842857Y-11254476D01*
X14976190Y-11054476D02*
X14995238Y-11054476D01*
X15014286Y-11064000D01*
X15023809Y-11073524D01*
X15033333Y-11092571D01*
X15042857Y-11130667D01*
X15042857Y-11178286D01*
X15033333Y-11216381D01*
X15023809Y-11235428D01*
X15014286Y-11244952D01*
X14995238Y-11254476D01*
X14976190Y-11254476D01*
X14957143Y-11244952D01*
X14947619Y-11235428D01*
X14938095Y-11216381D01*
X14928571Y-11178286D01*
X14928571Y-11130667D01*
X14938095Y-11092571D01*
X14947619Y-11073524D01*
X14957143Y-11064000D01*
X14976190Y-11054476D01*
X15119048Y-11073524D02*
X15128571Y-11064000D01*
X15147619Y-11054476D01*
X15195238Y-11054476D01*
X15214286Y-11064000D01*
X15223809Y-11073524D01*
X15233333Y-11092571D01*
X15233333Y-11111619D01*
X15223809Y-11140190D01*
X15109524Y-11254476D01*
X15233333Y-11254476D01*
X15300000Y-11054476D02*
X15423809Y-11054476D01*
X15357143Y-11130667D01*
X15385714Y-11130667D01*
X15404762Y-11140190D01*
X15414286Y-11149714D01*
X15423809Y-11168762D01*
X15423809Y-11216381D01*
X15414286Y-11235428D01*
X15404762Y-11244952D01*
X15385714Y-11254476D01*
X15328571Y-11254476D01*
X15309524Y-11244952D01*
X15300000Y-11235428D01*
X15595238Y-11054476D02*
X15557143Y-11054476D01*
X15538095Y-11064000D01*
X15528571Y-11073524D01*
X15509524Y-11102095D01*
X15500000Y-11140190D01*
X15500000Y-11216381D01*
X15509524Y-11235428D01*
X15519048Y-11244952D01*
X15538095Y-11254476D01*
X15576190Y-11254476D01*
X15595238Y-11244952D01*
X15604762Y-11235428D01*
X15614286Y-11216381D01*
X15614286Y-11168762D01*
X15604762Y-11149714D01*
X15595238Y-11140190D01*
X15576190Y-11130667D01*
X15538095Y-11130667D01*
X15519048Y-11140190D01*
X15509524Y-11149714D01*
X15500000Y-11168762D01*
X15690476Y-11054476D02*
X15690476Y-11092571D01*
X15766667Y-11054476D02*
X15766667Y-11092571D01*
X16061905Y-11330667D02*
X16052381Y-11321143D01*
X16033333Y-11292571D01*
X16023809Y-11273524D01*
X16014286Y-11244952D01*
X16004762Y-11197333D01*
X16004762Y-11159238D01*
X16014286Y-11111619D01*
X16023809Y-11083048D01*
X16033333Y-11064000D01*
X16052381Y-11035429D01*
X16061905Y-11025905D01*
X16242857Y-11254476D02*
X16128571Y-11254476D01*
X16185714Y-11254476D02*
X16185714Y-11054476D01*
X16166667Y-11083048D01*
X16147619Y-11102095D01*
X16128571Y-11111619D01*
X16480952Y-11254476D02*
X16480952Y-11054476D01*
X16566667Y-11254476D02*
X16566667Y-11149714D01*
X16557143Y-11130667D01*
X16538095Y-11121143D01*
X16509524Y-11121143D01*
X16490476Y-11130667D01*
X16480952Y-11140190D01*
X16690476Y-11254476D02*
X16671428Y-11244952D01*
X16661905Y-11235428D01*
X16652381Y-11216381D01*
X16652381Y-11159238D01*
X16661905Y-11140190D01*
X16671428Y-11130667D01*
X16690476Y-11121143D01*
X16719048Y-11121143D01*
X16738095Y-11130667D01*
X16747619Y-11140190D01*
X16757143Y-11159238D01*
X16757143Y-11216381D01*
X16747619Y-11235428D01*
X16738095Y-11244952D01*
X16719048Y-11254476D01*
X16690476Y-11254476D01*
X16871429Y-11254476D02*
X16852381Y-11244952D01*
X16842857Y-11225905D01*
X16842857Y-11054476D01*
X17023810Y-11244952D02*
X17004762Y-11254476D01*
X16966667Y-11254476D01*
X16947619Y-11244952D01*
X16938095Y-11225905D01*
X16938095Y-11149714D01*
X16947619Y-11130667D01*
X16966667Y-11121143D01*
X17004762Y-11121143D01*
X17023810Y-11130667D01*
X17033333Y-11149714D01*
X17033333Y-11168762D01*
X16938095Y-11187809D01*
X17100000Y-11330667D02*
X17109524Y-11321143D01*
X17128571Y-11292571D01*
X17138095Y-11273524D01*
X17147619Y-11244952D01*
X17157143Y-11197333D01*
X17157143Y-11159238D01*
X17147619Y-11111619D01*
X17138095Y-11083048D01*
X17128571Y-11064000D01*
X17109524Y-11035429D01*
X17100000Y-11025905D01*
D14*
X12450000Y-11388000D02*
X12450000Y-11468000D01*
X12410000Y-11428000D02*
X12490000Y-11428000D01*
D11*
X12785714Y-11318476D02*
X12804762Y-11318476D01*
X12823809Y-11328000D01*
X12833333Y-11337524D01*
X12842857Y-11356571D01*
X12852381Y-11394667D01*
X12852381Y-11442286D01*
X12842857Y-11480381D01*
X12833333Y-11499428D01*
X12823809Y-11508952D01*
X12804762Y-11518476D01*
X12785714Y-11518476D01*
X12766667Y-11508952D01*
X12757143Y-11499428D01*
X12747619Y-11480381D01*
X12738095Y-11442286D01*
X12738095Y-11394667D01*
X12747619Y-11356571D01*
X12757143Y-11337524D01*
X12766667Y-11328000D01*
X12785714Y-11318476D01*
X12938095Y-11499428D02*
X12947619Y-11508952D01*
X12938095Y-11518476D01*
X12928571Y-11508952D01*
X12938095Y-11499428D01*
X12938095Y-11518476D01*
X13061905Y-11404190D02*
X13042857Y-11394667D01*
X13033333Y-11385143D01*
X13023809Y-11366095D01*
X13023809Y-11356571D01*
X13033333Y-11337524D01*
X13042857Y-11328000D01*
X13061905Y-11318476D01*
X13100000Y-11318476D01*
X13119048Y-11328000D01*
X13128571Y-11337524D01*
X13138095Y-11356571D01*
X13138095Y-11366095D01*
X13128571Y-11385143D01*
X13119048Y-11394667D01*
X13100000Y-11404190D01*
X13061905Y-11404190D01*
X13042857Y-11413714D01*
X13033333Y-11423238D01*
X13023809Y-11442286D01*
X13023809Y-11480381D01*
X13033333Y-11499428D01*
X13042857Y-11508952D01*
X13061905Y-11518476D01*
X13100000Y-11518476D01*
X13119048Y-11508952D01*
X13128571Y-11499428D01*
X13138095Y-11480381D01*
X13138095Y-11442286D01*
X13128571Y-11423238D01*
X13119048Y-11413714D01*
X13100000Y-11404190D01*
X13261905Y-11318476D02*
X13280952Y-11318476D01*
X13300000Y-11328000D01*
X13309524Y-11337524D01*
X13319048Y-11356571D01*
X13328571Y-11394667D01*
X13328571Y-11442286D01*
X13319048Y-11480381D01*
X13309524Y-11499428D01*
X13300000Y-11508952D01*
X13280952Y-11518476D01*
X13261905Y-11518476D01*
X13242857Y-11508952D01*
X13233333Y-11499428D01*
X13223809Y-11480381D01*
X13214286Y-11442286D01*
X13214286Y-11394667D01*
X13223809Y-11356571D01*
X13233333Y-11337524D01*
X13242857Y-11328000D01*
X13261905Y-11318476D01*
X13452381Y-11318476D02*
X13471428Y-11318476D01*
X13490476Y-11328000D01*
X13500000Y-11337524D01*
X13509524Y-11356571D01*
X13519048Y-11394667D01*
X13519048Y-11442286D01*
X13509524Y-11480381D01*
X13500000Y-11499428D01*
X13490476Y-11508952D01*
X13471428Y-11518476D01*
X13452381Y-11518476D01*
X13433333Y-11508952D01*
X13423809Y-11499428D01*
X13414286Y-11480381D01*
X13404762Y-11442286D01*
X13404762Y-11394667D01*
X13414286Y-11356571D01*
X13423809Y-11337524D01*
X13433333Y-11328000D01*
X13452381Y-11318476D01*
X13604762Y-11518476D02*
X13604762Y-11385143D01*
X13604762Y-11404190D02*
X13614286Y-11394667D01*
X13633333Y-11385143D01*
X13661905Y-11385143D01*
X13680952Y-11394667D01*
X13690476Y-11413714D01*
X13690476Y-11518476D01*
X13690476Y-11413714D02*
X13700000Y-11394667D01*
X13719048Y-11385143D01*
X13747619Y-11385143D01*
X13766667Y-11394667D01*
X13776190Y-11413714D01*
X13776190Y-11518476D01*
X13871428Y-11518476D02*
X13871428Y-11385143D01*
X13871428Y-11404190D02*
X13880952Y-11394667D01*
X13900000Y-11385143D01*
X13928571Y-11385143D01*
X13947619Y-11394667D01*
X13957143Y-11413714D01*
X13957143Y-11518476D01*
X13957143Y-11413714D02*
X13966667Y-11394667D01*
X13985714Y-11385143D01*
X14014286Y-11385143D01*
X14033333Y-11394667D01*
X14042857Y-11413714D01*
X14042857Y-11518476D01*
X14433333Y-11308952D02*
X14261905Y-11566095D01*
X14690476Y-11318476D02*
X14709524Y-11318476D01*
X14728571Y-11328000D01*
X14738095Y-11337524D01*
X14747619Y-11356571D01*
X14757143Y-11394667D01*
X14757143Y-11442286D01*
X14747619Y-11480381D01*
X14738095Y-11499428D01*
X14728571Y-11508952D01*
X14709524Y-11518476D01*
X14690476Y-11518476D01*
X14671428Y-11508952D01*
X14661905Y-11499428D01*
X14652381Y-11480381D01*
X14642857Y-11442286D01*
X14642857Y-11394667D01*
X14652381Y-11356571D01*
X14661905Y-11337524D01*
X14671428Y-11328000D01*
X14690476Y-11318476D01*
X14842857Y-11499428D02*
X14852381Y-11508952D01*
X14842857Y-11518476D01*
X14833333Y-11508952D01*
X14842857Y-11499428D01*
X14842857Y-11518476D01*
X14976190Y-11318476D02*
X14995238Y-11318476D01*
X15014286Y-11328000D01*
X15023809Y-11337524D01*
X15033333Y-11356571D01*
X15042857Y-11394667D01*
X15042857Y-11442286D01*
X15033333Y-11480381D01*
X15023809Y-11499428D01*
X15014286Y-11508952D01*
X14995238Y-11518476D01*
X14976190Y-11518476D01*
X14957143Y-11508952D01*
X14947619Y-11499428D01*
X14938095Y-11480381D01*
X14928571Y-11442286D01*
X14928571Y-11394667D01*
X14938095Y-11356571D01*
X14947619Y-11337524D01*
X14957143Y-11328000D01*
X14976190Y-11318476D01*
X15109524Y-11318476D02*
X15233333Y-11318476D01*
X15166667Y-11394667D01*
X15195238Y-11394667D01*
X15214286Y-11404190D01*
X15223809Y-11413714D01*
X15233333Y-11432762D01*
X15233333Y-11480381D01*
X15223809Y-11499428D01*
X15214286Y-11508952D01*
X15195238Y-11518476D01*
X15138095Y-11518476D01*
X15119048Y-11508952D01*
X15109524Y-11499428D01*
X15423809Y-11518476D02*
X15309524Y-11518476D01*
X15366667Y-11518476D02*
X15366667Y-11318476D01*
X15347619Y-11347048D01*
X15328571Y-11366095D01*
X15309524Y-11375619D01*
X15604762Y-11318476D02*
X15509524Y-11318476D01*
X15500000Y-11413714D01*
X15509524Y-11404190D01*
X15528571Y-11394667D01*
X15576190Y-11394667D01*
X15595238Y-11404190D01*
X15604762Y-11413714D01*
X15614286Y-11432762D01*
X15614286Y-11480381D01*
X15604762Y-11499428D01*
X15595238Y-11508952D01*
X15576190Y-11518476D01*
X15528571Y-11518476D01*
X15509524Y-11508952D01*
X15500000Y-11499428D01*
X15690476Y-11318476D02*
X15690476Y-11356571D01*
X15766667Y-11318476D02*
X15766667Y-11356571D01*
X16061905Y-11594667D02*
X16052381Y-11585143D01*
X16033333Y-11556571D01*
X16023809Y-11537524D01*
X16014286Y-11508952D01*
X16004762Y-11461333D01*
X16004762Y-11423238D01*
X16014286Y-11375619D01*
X16023809Y-11347048D01*
X16033333Y-11328000D01*
X16052381Y-11299428D01*
X16061905Y-11289905D01*
X16223809Y-11385143D02*
X16223809Y-11518476D01*
X16176190Y-11308952D02*
X16128571Y-11451809D01*
X16252381Y-11451809D01*
X16480952Y-11518476D02*
X16480952Y-11318476D01*
X16566667Y-11518476D02*
X16566667Y-11413714D01*
X16557143Y-11394667D01*
X16538095Y-11385143D01*
X16509524Y-11385143D01*
X16490476Y-11394667D01*
X16480952Y-11404190D01*
X16690476Y-11518476D02*
X16671428Y-11508952D01*
X16661905Y-11499428D01*
X16652381Y-11480381D01*
X16652381Y-11423238D01*
X16661905Y-11404190D01*
X16671428Y-11394667D01*
X16690476Y-11385143D01*
X16719048Y-11385143D01*
X16738095Y-11394667D01*
X16747619Y-11404190D01*
X16757143Y-11423238D01*
X16757143Y-11480381D01*
X16747619Y-11499428D01*
X16738095Y-11508952D01*
X16719048Y-11518476D01*
X16690476Y-11518476D01*
X16871429Y-11518476D02*
X16852381Y-11508952D01*
X16842857Y-11489905D01*
X16842857Y-11318476D01*
X17023810Y-11508952D02*
X17004762Y-11518476D01*
X16966667Y-11518476D01*
X16947619Y-11508952D01*
X16938095Y-11489905D01*
X16938095Y-11413714D01*
X16947619Y-11394667D01*
X16966667Y-11385143D01*
X17004762Y-11385143D01*
X17023810Y-11394667D01*
X17033333Y-11413714D01*
X17033333Y-11432762D01*
X16938095Y-11451809D01*
X17109524Y-11508952D02*
X17128571Y-11518476D01*
X17166667Y-11518476D01*
X17185714Y-11508952D01*
X17195238Y-11489905D01*
X17195238Y-11480381D01*
X17185714Y-11461333D01*
X17166667Y-11451809D01*
X17138095Y-11451809D01*
X17119048Y-11442286D01*
X17109524Y-11423238D01*
X17109524Y-11413714D01*
X17119048Y-11394667D01*
X17138095Y-11385143D01*
X17166667Y-11385143D01*
X17185714Y-11394667D01*
X17261905Y-11594667D02*
X17271429Y-11585143D01*
X17290476Y-11556571D01*
X17300000Y-11537524D01*
X17309524Y-11508952D01*
X17319048Y-11461333D01*
X17319048Y-11423238D01*
X17309524Y-11375619D01*
X17300000Y-11347048D01*
X17290476Y-11328000D01*
X17271429Y-11299428D01*
X17261905Y-11289905D01*
D15*
X12475356Y-11727356D02*
X12475356Y-11656644D01*
X12404644Y-11656644D01*
X12404644Y-11727356D01*
X12475356Y-11727356D01*
D11*
X12852381Y-11782476D02*
X12738095Y-11782476D01*
X12795238Y-11782476D02*
X12795238Y-11582476D01*
X12776190Y-11611048D01*
X12757143Y-11630095D01*
X12738095Y-11639619D01*
X12938095Y-11763428D02*
X12947619Y-11772952D01*
X12938095Y-11782476D01*
X12928571Y-11772952D01*
X12938095Y-11763428D01*
X12938095Y-11782476D01*
X13071428Y-11582476D02*
X13090476Y-11582476D01*
X13109524Y-11592000D01*
X13119048Y-11601524D01*
X13128571Y-11620571D01*
X13138095Y-11658667D01*
X13138095Y-11706286D01*
X13128571Y-11744381D01*
X13119048Y-11763428D01*
X13109524Y-11772952D01*
X13090476Y-11782476D01*
X13071428Y-11782476D01*
X13052381Y-11772952D01*
X13042857Y-11763428D01*
X13033333Y-11744381D01*
X13023809Y-11706286D01*
X13023809Y-11658667D01*
X13033333Y-11620571D01*
X13042857Y-11601524D01*
X13052381Y-11592000D01*
X13071428Y-11582476D01*
X13261905Y-11582476D02*
X13280952Y-11582476D01*
X13300000Y-11592000D01*
X13309524Y-11601524D01*
X13319048Y-11620571D01*
X13328571Y-11658667D01*
X13328571Y-11706286D01*
X13319048Y-11744381D01*
X13309524Y-11763428D01*
X13300000Y-11772952D01*
X13280952Y-11782476D01*
X13261905Y-11782476D01*
X13242857Y-11772952D01*
X13233333Y-11763428D01*
X13223809Y-11744381D01*
X13214286Y-11706286D01*
X13214286Y-11658667D01*
X13223809Y-11620571D01*
X13233333Y-11601524D01*
X13242857Y-11592000D01*
X13261905Y-11582476D01*
X13452381Y-11582476D02*
X13471428Y-11582476D01*
X13490476Y-11592000D01*
X13500000Y-11601524D01*
X13509524Y-11620571D01*
X13519048Y-11658667D01*
X13519048Y-11706286D01*
X13509524Y-11744381D01*
X13500000Y-11763428D01*
X13490476Y-11772952D01*
X13471428Y-11782476D01*
X13452381Y-11782476D01*
X13433333Y-11772952D01*
X13423809Y-11763428D01*
X13414286Y-11744381D01*
X13404762Y-11706286D01*
X13404762Y-11658667D01*
X13414286Y-11620571D01*
X13423809Y-11601524D01*
X13433333Y-11592000D01*
X13452381Y-11582476D01*
X13604762Y-11782476D02*
X13604762Y-11649143D01*
X13604762Y-11668190D02*
X13614286Y-11658667D01*
X13633333Y-11649143D01*
X13661905Y-11649143D01*
X13680952Y-11658667D01*
X13690476Y-11677714D01*
X13690476Y-11782476D01*
X13690476Y-11677714D02*
X13700000Y-11658667D01*
X13719048Y-11649143D01*
X13747619Y-11649143D01*
X13766667Y-11658667D01*
X13776190Y-11677714D01*
X13776190Y-11782476D01*
X13871428Y-11782476D02*
X13871428Y-11649143D01*
X13871428Y-11668190D02*
X13880952Y-11658667D01*
X13900000Y-11649143D01*
X13928571Y-11649143D01*
X13947619Y-11658667D01*
X13957143Y-11677714D01*
X13957143Y-11782476D01*
X13957143Y-11677714D02*
X13966667Y-11658667D01*
X13985714Y-11649143D01*
X14014286Y-11649143D01*
X14033333Y-11658667D01*
X14042857Y-11677714D01*
X14042857Y-11782476D01*
X14433333Y-11572952D02*
X14261905Y-11830095D01*
X14690476Y-11582476D02*
X14709524Y-11582476D01*
X14728571Y-11592000D01*
X14738095Y-11601524D01*
X14747619Y-11620571D01*
X14757143Y-11658667D01*
X14757143Y-11706286D01*
X14747619Y-11744381D01*
X14738095Y-11763428D01*
X14728571Y-11772952D01*
X14709524Y-11782476D01*
X14690476Y-11782476D01*
X14671428Y-11772952D01*
X14661905Y-11763428D01*
X14652381Y-11744381D01*
X14642857Y-11706286D01*
X14642857Y-11658667D01*
X14652381Y-11620571D01*
X14661905Y-11601524D01*
X14671428Y-11592000D01*
X14690476Y-11582476D01*
X14842857Y-11763428D02*
X14852381Y-11772952D01*
X14842857Y-11782476D01*
X14833333Y-11772952D01*
X14842857Y-11763428D01*
X14842857Y-11782476D01*
X14976190Y-11582476D02*
X14995238Y-11582476D01*
X15014286Y-11592000D01*
X15023809Y-11601524D01*
X15033333Y-11620571D01*
X15042857Y-11658667D01*
X15042857Y-11706286D01*
X15033333Y-11744381D01*
X15023809Y-11763428D01*
X15014286Y-11772952D01*
X14995238Y-11782476D01*
X14976190Y-11782476D01*
X14957143Y-11772952D01*
X14947619Y-11763428D01*
X14938095Y-11744381D01*
X14928571Y-11706286D01*
X14928571Y-11658667D01*
X14938095Y-11620571D01*
X14947619Y-11601524D01*
X14957143Y-11592000D01*
X14976190Y-11582476D01*
X15109524Y-11582476D02*
X15233333Y-11582476D01*
X15166667Y-11658667D01*
X15195238Y-11658667D01*
X15214286Y-11668190D01*
X15223809Y-11677714D01*
X15233333Y-11696762D01*
X15233333Y-11744381D01*
X15223809Y-11763428D01*
X15214286Y-11772952D01*
X15195238Y-11782476D01*
X15138095Y-11782476D01*
X15119048Y-11772952D01*
X15109524Y-11763428D01*
X15328571Y-11782476D02*
X15366667Y-11782476D01*
X15385714Y-11772952D01*
X15395238Y-11763428D01*
X15414286Y-11734857D01*
X15423809Y-11696762D01*
X15423809Y-11620571D01*
X15414286Y-11601524D01*
X15404762Y-11592000D01*
X15385714Y-11582476D01*
X15347619Y-11582476D01*
X15328571Y-11592000D01*
X15319048Y-11601524D01*
X15309524Y-11620571D01*
X15309524Y-11668190D01*
X15319048Y-11687238D01*
X15328571Y-11696762D01*
X15347619Y-11706286D01*
X15385714Y-11706286D01*
X15404762Y-11696762D01*
X15414286Y-11687238D01*
X15423809Y-11668190D01*
X15595238Y-11649143D02*
X15595238Y-11782476D01*
X15547619Y-11572952D02*
X15500000Y-11715809D01*
X15623809Y-11715809D01*
X15690476Y-11582476D02*
X15690476Y-11620571D01*
X15766667Y-11582476D02*
X15766667Y-11620571D01*
X16061905Y-11858667D02*
X16052381Y-11849143D01*
X16033333Y-11820571D01*
X16023809Y-11801524D01*
X16014286Y-11772952D01*
X16004762Y-11725333D01*
X16004762Y-11687238D01*
X16014286Y-11639619D01*
X16023809Y-11611048D01*
X16033333Y-11592000D01*
X16052381Y-11563428D01*
X16061905Y-11553905D01*
X16119048Y-11582476D02*
X16242857Y-11582476D01*
X16176190Y-11658667D01*
X16204762Y-11658667D01*
X16223809Y-11668190D01*
X16233333Y-11677714D01*
X16242857Y-11696762D01*
X16242857Y-11744381D01*
X16233333Y-11763428D01*
X16223809Y-11772952D01*
X16204762Y-11782476D01*
X16147619Y-11782476D01*
X16128571Y-11772952D01*
X16119048Y-11763428D01*
X16366667Y-11582476D02*
X16385714Y-11582476D01*
X16404762Y-11592000D01*
X16414286Y-11601524D01*
X16423809Y-11620571D01*
X16433333Y-11658667D01*
X16433333Y-11706286D01*
X16423809Y-11744381D01*
X16414286Y-11763428D01*
X16404762Y-11772952D01*
X16385714Y-11782476D01*
X16366667Y-11782476D01*
X16347619Y-11772952D01*
X16338095Y-11763428D01*
X16328571Y-11744381D01*
X16319048Y-11706286D01*
X16319048Y-11658667D01*
X16328571Y-11620571D01*
X16338095Y-11601524D01*
X16347619Y-11592000D01*
X16366667Y-11582476D01*
X16671428Y-11782476D02*
X16671428Y-11582476D01*
X16757143Y-11782476D02*
X16757143Y-11677714D01*
X16747619Y-11658667D01*
X16728571Y-11649143D01*
X16700000Y-11649143D01*
X16680952Y-11658667D01*
X16671428Y-11668190D01*
X16880952Y-11782476D02*
X16861905Y-11772952D01*
X16852381Y-11763428D01*
X16842857Y-11744381D01*
X16842857Y-11687238D01*
X16852381Y-11668190D01*
X16861905Y-11658667D01*
X16880952Y-11649143D01*
X16909524Y-11649143D01*
X16928571Y-11658667D01*
X16938095Y-11668190D01*
X16947619Y-11687238D01*
X16947619Y-11744381D01*
X16938095Y-11763428D01*
X16928571Y-11772952D01*
X16909524Y-11782476D01*
X16880952Y-11782476D01*
X17061905Y-11782476D02*
X17042857Y-11772952D01*
X17033333Y-11753905D01*
X17033333Y-11582476D01*
X17214286Y-11772952D02*
X17195238Y-11782476D01*
X17157143Y-11782476D01*
X17138095Y-11772952D01*
X17128571Y-11753905D01*
X17128571Y-11677714D01*
X17138095Y-11658667D01*
X17157143Y-11649143D01*
X17195238Y-11649143D01*
X17214286Y-11658667D01*
X17223810Y-11677714D01*
X17223810Y-11696762D01*
X17128571Y-11715809D01*
X17300000Y-11772952D02*
X17319048Y-11782476D01*
X17357143Y-11782476D01*
X17376190Y-11772952D01*
X17385714Y-11753905D01*
X17385714Y-11744381D01*
X17376190Y-11725333D01*
X17357143Y-11715809D01*
X17328571Y-11715809D01*
X17309524Y-11706286D01*
X17300000Y-11687238D01*
X17300000Y-11677714D01*
X17309524Y-11658667D01*
X17328571Y-11649143D01*
X17357143Y-11649143D01*
X17376190Y-11658667D01*
X17452381Y-11858667D02*
X17461905Y-11849143D01*
X17480952Y-11820571D01*
X17490476Y-11801524D01*
X17500000Y-11772952D01*
X17509524Y-11725333D01*
X17509524Y-11687238D01*
X17500000Y-11639619D01*
X17490476Y-11611048D01*
X17480952Y-11592000D01*
X17461905Y-11563428D01*
X17452381Y-11553905D01*
X12390000Y-12056000D02*
X12490000Y-11956000D01*
X12390000Y-11856000D01*
X12290000Y-11956000D01*
X12390000Y-12056000D01*
X12728571Y-11846476D02*
X12852381Y-11846476D01*
X12785714Y-11922667D01*
X12814286Y-11922667D01*
X12833333Y-11932190D01*
X12842857Y-11941714D01*
X12852381Y-11960762D01*
X12852381Y-12008381D01*
X12842857Y-12027428D01*
X12833333Y-12036952D01*
X12814286Y-12046476D01*
X12757143Y-12046476D01*
X12738095Y-12036952D01*
X12728571Y-12027428D01*
X12938095Y-12027428D02*
X12947619Y-12036952D01*
X12938095Y-12046476D01*
X12928571Y-12036952D01*
X12938095Y-12027428D01*
X12938095Y-12046476D01*
X13023809Y-11865524D02*
X13033333Y-11856000D01*
X13052381Y-11846476D01*
X13100000Y-11846476D01*
X13119048Y-11856000D01*
X13128571Y-11865524D01*
X13138095Y-11884571D01*
X13138095Y-11903619D01*
X13128571Y-11932190D01*
X13014286Y-12046476D01*
X13138095Y-12046476D01*
X13261905Y-11846476D02*
X13280952Y-11846476D01*
X13300000Y-11856000D01*
X13309524Y-11865524D01*
X13319048Y-11884571D01*
X13328571Y-11922667D01*
X13328571Y-11970286D01*
X13319048Y-12008381D01*
X13309524Y-12027428D01*
X13300000Y-12036952D01*
X13280952Y-12046476D01*
X13261905Y-12046476D01*
X13242857Y-12036952D01*
X13233333Y-12027428D01*
X13223809Y-12008381D01*
X13214286Y-11970286D01*
X13214286Y-11922667D01*
X13223809Y-11884571D01*
X13233333Y-11865524D01*
X13242857Y-11856000D01*
X13261905Y-11846476D01*
X13452381Y-11846476D02*
X13471428Y-11846476D01*
X13490476Y-11856000D01*
X13500000Y-11865524D01*
X13509524Y-11884571D01*
X13519048Y-11922667D01*
X13519048Y-11970286D01*
X13509524Y-12008381D01*
X13500000Y-12027428D01*
X13490476Y-12036952D01*
X13471428Y-12046476D01*
X13452381Y-12046476D01*
X13433333Y-12036952D01*
X13423809Y-12027428D01*
X13414286Y-12008381D01*
X13404762Y-11970286D01*
X13404762Y-11922667D01*
X13414286Y-11884571D01*
X13423809Y-11865524D01*
X13433333Y-11856000D01*
X13452381Y-11846476D01*
X13604762Y-12046476D02*
X13604762Y-11913143D01*
X13604762Y-11932190D02*
X13614286Y-11922667D01*
X13633333Y-11913143D01*
X13661905Y-11913143D01*
X13680952Y-11922667D01*
X13690476Y-11941714D01*
X13690476Y-12046476D01*
X13690476Y-11941714D02*
X13700000Y-11922667D01*
X13719048Y-11913143D01*
X13747619Y-11913143D01*
X13766667Y-11922667D01*
X13776190Y-11941714D01*
X13776190Y-12046476D01*
X13871428Y-12046476D02*
X13871428Y-11913143D01*
X13871428Y-11932190D02*
X13880952Y-11922667D01*
X13900000Y-11913143D01*
X13928571Y-11913143D01*
X13947619Y-11922667D01*
X13957143Y-11941714D01*
X13957143Y-12046476D01*
X13957143Y-11941714D02*
X13966667Y-11922667D01*
X13985714Y-11913143D01*
X14014286Y-11913143D01*
X14033333Y-11922667D01*
X14042857Y-11941714D01*
X14042857Y-12046476D01*
X14433333Y-11836952D02*
X14261905Y-12094095D01*
X14690476Y-11846476D02*
X14709524Y-11846476D01*
X14728571Y-11856000D01*
X14738095Y-11865524D01*
X14747619Y-11884571D01*
X14757143Y-11922667D01*
X14757143Y-11970286D01*
X14747619Y-12008381D01*
X14738095Y-12027428D01*
X14728571Y-12036952D01*
X14709524Y-12046476D01*
X14690476Y-12046476D01*
X14671428Y-12036952D01*
X14661905Y-12027428D01*
X14652381Y-12008381D01*
X14642857Y-11970286D01*
X14642857Y-11922667D01*
X14652381Y-11884571D01*
X14661905Y-11865524D01*
X14671428Y-11856000D01*
X14690476Y-11846476D01*
X14842857Y-12027428D02*
X14852381Y-12036952D01*
X14842857Y-12046476D01*
X14833333Y-12036952D01*
X14842857Y-12027428D01*
X14842857Y-12046476D01*
X15042857Y-12046476D02*
X14928571Y-12046476D01*
X14985714Y-12046476D02*
X14985714Y-11846476D01*
X14966667Y-11875048D01*
X14947619Y-11894095D01*
X14928571Y-11903619D01*
X15119048Y-11865524D02*
X15128571Y-11856000D01*
X15147619Y-11846476D01*
X15195238Y-11846476D01*
X15214286Y-11856000D01*
X15223809Y-11865524D01*
X15233333Y-11884571D01*
X15233333Y-11903619D01*
X15223809Y-11932190D01*
X15109524Y-12046476D01*
X15233333Y-12046476D01*
X15404762Y-11846476D02*
X15366667Y-11846476D01*
X15347619Y-11856000D01*
X15338095Y-11865524D01*
X15319048Y-11894095D01*
X15309524Y-11932190D01*
X15309524Y-12008381D01*
X15319048Y-12027428D01*
X15328571Y-12036952D01*
X15347619Y-12046476D01*
X15385714Y-12046476D01*
X15404762Y-12036952D01*
X15414286Y-12027428D01*
X15423809Y-12008381D01*
X15423809Y-11960762D01*
X15414286Y-11941714D01*
X15404762Y-11932190D01*
X15385714Y-11922667D01*
X15347619Y-11922667D01*
X15328571Y-11932190D01*
X15319048Y-11941714D01*
X15309524Y-11960762D01*
X15547619Y-11846476D02*
X15566667Y-11846476D01*
X15585714Y-11856000D01*
X15595238Y-11865524D01*
X15604762Y-11884571D01*
X15614286Y-11922667D01*
X15614286Y-11970286D01*
X15604762Y-12008381D01*
X15595238Y-12027428D01*
X15585714Y-12036952D01*
X15566667Y-12046476D01*
X15547619Y-12046476D01*
X15528571Y-12036952D01*
X15519048Y-12027428D01*
X15509524Y-12008381D01*
X15500000Y-11970286D01*
X15500000Y-11922667D01*
X15509524Y-11884571D01*
X15519048Y-11865524D01*
X15528571Y-11856000D01*
X15547619Y-11846476D01*
X15690476Y-11846476D02*
X15690476Y-11884571D01*
X15766667Y-11846476D02*
X15766667Y-11884571D01*
X16061905Y-12122667D02*
X16052381Y-12113143D01*
X16033333Y-12084571D01*
X16023809Y-12065524D01*
X16014286Y-12036952D01*
X16004762Y-11989333D01*
X16004762Y-11951238D01*
X16014286Y-11903619D01*
X16023809Y-11875048D01*
X16033333Y-11856000D01*
X16052381Y-11827428D01*
X16061905Y-11817905D01*
X16223809Y-11913143D02*
X16223809Y-12046476D01*
X16176190Y-11836952D02*
X16128571Y-11979809D01*
X16252381Y-11979809D01*
X16480952Y-12046476D02*
X16480952Y-11846476D01*
X16566667Y-12046476D02*
X16566667Y-11941714D01*
X16557143Y-11922667D01*
X16538095Y-11913143D01*
X16509524Y-11913143D01*
X16490476Y-11922667D01*
X16480952Y-11932190D01*
X16690476Y-12046476D02*
X16671428Y-12036952D01*
X16661905Y-12027428D01*
X16652381Y-12008381D01*
X16652381Y-11951238D01*
X16661905Y-11932190D01*
X16671428Y-11922667D01*
X16690476Y-11913143D01*
X16719048Y-11913143D01*
X16738095Y-11922667D01*
X16747619Y-11932190D01*
X16757143Y-11951238D01*
X16757143Y-12008381D01*
X16747619Y-12027428D01*
X16738095Y-12036952D01*
X16719048Y-12046476D01*
X16690476Y-12046476D01*
X16871429Y-12046476D02*
X16852381Y-12036952D01*
X16842857Y-12017905D01*
X16842857Y-11846476D01*
X17023810Y-12036952D02*
X17004762Y-12046476D01*
X16966667Y-12046476D01*
X16947619Y-12036952D01*
X16938095Y-12017905D01*
X16938095Y-11941714D01*
X16947619Y-11922667D01*
X16966667Y-11913143D01*
X17004762Y-11913143D01*
X17023810Y-11922667D01*
X17033333Y-11941714D01*
X17033333Y-11960762D01*
X16938095Y-11979809D01*
X17109524Y-12036952D02*
X17128571Y-12046476D01*
X17166667Y-12046476D01*
X17185714Y-12036952D01*
X17195238Y-12017905D01*
X17195238Y-12008381D01*
X17185714Y-11989333D01*
X17166667Y-11979809D01*
X17138095Y-11979809D01*
X17119048Y-11970286D01*
X17109524Y-11951238D01*
X17109524Y-11941714D01*
X17119048Y-11922667D01*
X17138095Y-11913143D01*
X17166667Y-11913143D01*
X17185714Y-11922667D01*
X17261905Y-12122667D02*
X17271429Y-12113143D01*
X17290476Y-12084571D01*
X17300000Y-12065524D01*
X17309524Y-12036952D01*
X17319048Y-11989333D01*
X17319048Y-11951238D01*
X17309524Y-11903619D01*
X17300000Y-11875048D01*
X17290476Y-11856000D01*
X17271429Y-11827428D01*
X17261905Y-11817905D01*
M02*
