%FSLAX45Y45*%
G04 Gerber Fmt 4.5, Leading zero omitted, Abs format (unit mm)*
G04 Created by KiCad (PCBNEW (6.0.2)) date 2022-07-31 16:51:35*
%MOMM*%
%LPD*%
G01*
G04 APERTURE LIST*
%TA.AperFunction,Profile*%
%ADD10C,0.200000*%
%TD*%
%ADD11C,0.200000*%
G04 APERTURE END LIST*
D10*
X12500000Y-10000000D02*
G75*
G03*
X12750000Y-10250000I250000J0D01*
G01*
X16250000Y-10250000D02*
G75*
G03*
X16500000Y-10000000I0J250000D01*
G01*
X16500000Y-7750000D02*
G75*
G03*
X16250000Y-7500000I-250000J0D01*
G01*
X12750000Y-7500000D02*
G75*
G03*
X12500000Y-7750000I0J-250000D01*
G01*
X12500000Y-10000000D02*
X12500000Y-7750000D01*
X16250000Y-10250000D02*
X12750000Y-10250000D01*
X16500000Y-7750000D02*
X16500000Y-10000000D01*
X12750000Y-7500000D02*
X16250000Y-7500000D01*
D11*
X12747619Y-10570476D02*
X12747619Y-10370476D01*
X12795238Y-10370476D01*
X12823809Y-10380000D01*
X12842857Y-10399048D01*
X12852381Y-10418095D01*
X12861905Y-10456190D01*
X12861905Y-10484762D01*
X12852381Y-10522857D01*
X12842857Y-10541905D01*
X12823809Y-10560952D01*
X12795238Y-10570476D01*
X12747619Y-10570476D01*
X12947619Y-10570476D02*
X12947619Y-10437143D01*
X12947619Y-10475238D02*
X12957143Y-10456190D01*
X12966667Y-10446667D01*
X12985714Y-10437143D01*
X13004762Y-10437143D01*
X13071428Y-10570476D02*
X13071428Y-10437143D01*
X13071428Y-10370476D02*
X13061905Y-10380000D01*
X13071428Y-10389524D01*
X13080952Y-10380000D01*
X13071428Y-10370476D01*
X13071428Y-10389524D01*
X13195238Y-10570476D02*
X13176190Y-10560952D01*
X13166667Y-10541905D01*
X13166667Y-10370476D01*
X13300000Y-10570476D02*
X13280952Y-10560952D01*
X13271428Y-10541905D01*
X13271428Y-10370476D01*
X13528571Y-10570476D02*
X13528571Y-10370476D01*
X13595238Y-10513333D01*
X13661905Y-10370476D01*
X13661905Y-10570476D01*
X13842857Y-10570476D02*
X13842857Y-10465714D01*
X13833333Y-10446667D01*
X13814286Y-10437143D01*
X13776190Y-10437143D01*
X13757143Y-10446667D01*
X13842857Y-10560952D02*
X13823809Y-10570476D01*
X13776190Y-10570476D01*
X13757143Y-10560952D01*
X13747619Y-10541905D01*
X13747619Y-10522857D01*
X13757143Y-10503810D01*
X13776190Y-10494286D01*
X13823809Y-10494286D01*
X13842857Y-10484762D01*
X13938095Y-10437143D02*
X13938095Y-10637143D01*
X13938095Y-10446667D02*
X13957143Y-10437143D01*
X13995238Y-10437143D01*
X14014286Y-10446667D01*
X14023809Y-10456190D01*
X14033333Y-10475238D01*
X14033333Y-10532381D01*
X14023809Y-10551429D01*
X14014286Y-10560952D01*
X13995238Y-10570476D01*
X13957143Y-10570476D01*
X13938095Y-10560952D01*
X14119048Y-10551429D02*
X14128571Y-10560952D01*
X14119048Y-10570476D01*
X14109524Y-10560952D01*
X14119048Y-10551429D01*
X14119048Y-10570476D01*
X14119048Y-10446667D02*
X14128571Y-10456190D01*
X14119048Y-10465714D01*
X14109524Y-10456190D01*
X14119048Y-10446667D01*
X14119048Y-10465714D01*
M02*
