G04 #@! TF.GenerationSoftware,KiCad,Pcbnew,(6.0.2)*
G04 #@! TF.CreationDate,2022-07-31T16:50:56-06:00*
G04 #@! TF.ProjectId,ypbprSync_MiSTer,79706270-7253-4796-9e63-5f4d69535465,rev?*
G04 #@! TF.SameCoordinates,Original*
G04 #@! TF.FileFunction,Legend,Top*
G04 #@! TF.FilePolarity,Positive*
%FSLAX46Y46*%
G04 Gerber Fmt 4.6, Leading zero omitted, Abs format (unit mm)*
G04 Created by KiCad (PCBNEW (6.0.2)) date 2022-07-31 16:50:56*
%MOMM*%
%LPD*%
G01*
G04 APERTURE LIST*
%ADD10C,0.200000*%
%ADD11C,0.150000*%
%ADD12C,0.120000*%
%ADD13C,4.000000*%
%ADD14R,1.600000X1.600000*%
%ADD15C,1.600000*%
%ADD16O,1.600000X1.600000*%
G04 APERTURE END LIST*
D10*
X128362926Y-78326539D02*
X128362926Y-78478920D01*
X128324831Y-78555111D01*
X128248640Y-78631301D01*
X128096259Y-78669397D01*
X127829592Y-78669397D01*
X127677211Y-78631301D01*
X127601021Y-78555111D01*
X127562926Y-78478920D01*
X127562926Y-78326539D01*
X127601021Y-78250349D01*
X127677211Y-78174158D01*
X127829592Y-78136063D01*
X128096259Y-78136063D01*
X128248640Y-78174158D01*
X128324831Y-78250349D01*
X128362926Y-78326539D01*
X128096259Y-79012254D02*
X127562926Y-79012254D01*
X128020069Y-79012254D02*
X128058164Y-79050349D01*
X128096259Y-79126539D01*
X128096259Y-79240825D01*
X128058164Y-79317016D01*
X127981973Y-79355111D01*
X127562926Y-79355111D01*
X127562926Y-79850349D02*
X127601021Y-79774158D01*
X127677211Y-79736063D01*
X128362926Y-79736063D01*
X128096259Y-80078920D02*
X127562926Y-80269397D01*
X128096259Y-80459873D02*
X127562926Y-80269397D01*
X127372450Y-80193206D01*
X127334354Y-80155111D01*
X127296259Y-80078920D01*
X128096259Y-81259873D02*
X128096259Y-81564635D01*
X127562926Y-81374158D02*
X128248640Y-81374158D01*
X128324831Y-81412254D01*
X128362926Y-81488444D01*
X128362926Y-81564635D01*
X127562926Y-81945587D02*
X127601021Y-81869397D01*
X127639116Y-81831301D01*
X127715307Y-81793206D01*
X127943878Y-81793206D01*
X128020069Y-81831301D01*
X128058164Y-81869397D01*
X128096259Y-81945587D01*
X128096259Y-82059873D01*
X128058164Y-82136063D01*
X128020069Y-82174158D01*
X127943878Y-82212254D01*
X127715307Y-82212254D01*
X127639116Y-82174158D01*
X127601021Y-82136063D01*
X127562926Y-82059873D01*
X127562926Y-81945587D01*
X127562926Y-82555111D02*
X128096259Y-82555111D01*
X127943878Y-82555111D02*
X128020069Y-82593206D01*
X128058164Y-82631301D01*
X128096259Y-82707492D01*
X128096259Y-82783682D01*
X128096259Y-84002730D02*
X127562926Y-84002730D01*
X128096259Y-83659873D02*
X127677211Y-83659873D01*
X127601021Y-83697968D01*
X127562926Y-83774158D01*
X127562926Y-83888444D01*
X127601021Y-83964635D01*
X127639116Y-84002730D01*
X127601021Y-84345587D02*
X127562926Y-84421777D01*
X127562926Y-84574158D01*
X127601021Y-84650349D01*
X127677211Y-84688444D01*
X127715307Y-84688444D01*
X127791497Y-84650349D01*
X127829592Y-84574158D01*
X127829592Y-84459873D01*
X127867688Y-84383682D01*
X127943878Y-84345587D01*
X127981973Y-84345587D01*
X128058164Y-84383682D01*
X128096259Y-84459873D01*
X128096259Y-84574158D01*
X128058164Y-84650349D01*
X127601021Y-85336063D02*
X127562926Y-85259873D01*
X127562926Y-85107492D01*
X127601021Y-85031301D01*
X127677211Y-84993206D01*
X127981973Y-84993206D01*
X128058164Y-85031301D01*
X128096259Y-85107492D01*
X128096259Y-85259873D01*
X128058164Y-85336063D01*
X127981973Y-85374158D01*
X127905783Y-85374158D01*
X127829592Y-84993206D01*
X128096259Y-86250349D02*
X127562926Y-86402730D01*
X127943878Y-86555111D01*
X127562926Y-86707492D01*
X128096259Y-86859873D01*
X127562926Y-87164635D02*
X128096259Y-87164635D01*
X128362926Y-87164635D02*
X128324831Y-87126539D01*
X128286735Y-87164635D01*
X128324831Y-87202730D01*
X128362926Y-87164635D01*
X128286735Y-87164635D01*
X128096259Y-87431301D02*
X128096259Y-87736063D01*
X128362926Y-87545587D02*
X127677211Y-87545587D01*
X127601021Y-87583682D01*
X127562926Y-87659873D01*
X127562926Y-87736063D01*
X127562926Y-88002730D02*
X128362926Y-88002730D01*
X127562926Y-88345587D02*
X127981973Y-88345587D01*
X128058164Y-88307492D01*
X128096259Y-88231301D01*
X128096259Y-88117016D01*
X128058164Y-88040825D01*
X128020069Y-88002730D01*
X127562926Y-89336063D02*
X128362926Y-89336063D01*
X127791497Y-89602730D01*
X128362926Y-89869397D01*
X127562926Y-89869397D01*
X127562926Y-90250349D02*
X128096259Y-90250349D01*
X128362926Y-90250349D02*
X128324831Y-90212254D01*
X128286735Y-90250349D01*
X128324831Y-90288444D01*
X128362926Y-90250349D01*
X128286735Y-90250349D01*
X127601021Y-90593206D02*
X127562926Y-90707492D01*
X127562926Y-90897968D01*
X127601021Y-90974158D01*
X127639116Y-91012254D01*
X127715307Y-91050349D01*
X127791497Y-91050349D01*
X127867688Y-91012254D01*
X127905783Y-90974158D01*
X127943878Y-90897968D01*
X127981973Y-90745587D01*
X128020069Y-90669397D01*
X128058164Y-90631301D01*
X128134354Y-90593206D01*
X128210545Y-90593206D01*
X128286735Y-90631301D01*
X128324831Y-90669397D01*
X128362926Y-90745587D01*
X128362926Y-90936063D01*
X128324831Y-91050349D01*
X128362926Y-91278920D02*
X128362926Y-91736063D01*
X127562926Y-91507492D02*
X128362926Y-91507492D01*
X127601021Y-92307492D02*
X127562926Y-92231301D01*
X127562926Y-92078920D01*
X127601021Y-92002730D01*
X127677211Y-91964635D01*
X127981973Y-91964635D01*
X128058164Y-92002730D01*
X128096259Y-92078920D01*
X128096259Y-92231301D01*
X128058164Y-92307492D01*
X127981973Y-92345587D01*
X127905783Y-92345587D01*
X127829592Y-91964635D01*
X127562926Y-92688444D02*
X128096259Y-92688444D01*
X127943878Y-92688444D02*
X128020069Y-92726539D01*
X128058164Y-92764635D01*
X128096259Y-92840825D01*
X128096259Y-92917016D01*
X127981973Y-94059873D02*
X127981973Y-93793206D01*
X127562926Y-93793206D02*
X128362926Y-93793206D01*
X128362926Y-94174158D01*
X127562926Y-94478920D02*
X128362926Y-94478920D01*
X128362926Y-94783682D01*
X128324831Y-94859873D01*
X128286735Y-94897968D01*
X128210545Y-94936063D01*
X128096259Y-94936063D01*
X128020069Y-94897968D01*
X127981973Y-94859873D01*
X127943878Y-94783682D01*
X127943878Y-94478920D01*
X128324831Y-95697968D02*
X128362926Y-95621777D01*
X128362926Y-95507492D01*
X128324831Y-95393206D01*
X128248640Y-95317016D01*
X128172450Y-95278920D01*
X128020069Y-95240825D01*
X127905783Y-95240825D01*
X127753402Y-95278920D01*
X127677211Y-95317016D01*
X127601021Y-95393206D01*
X127562926Y-95507492D01*
X127562926Y-95583682D01*
X127601021Y-95697968D01*
X127639116Y-95736063D01*
X127905783Y-95736063D01*
X127905783Y-95583682D01*
X127791497Y-96040825D02*
X127791497Y-96421777D01*
X127562926Y-95964635D02*
X128362926Y-96231301D01*
X127562926Y-96497968D01*
X127562926Y-97717016D02*
X127981973Y-97717016D01*
X128058164Y-97678920D01*
X128096259Y-97602730D01*
X128096259Y-97450349D01*
X128058164Y-97374158D01*
X127601021Y-97717016D02*
X127562926Y-97640825D01*
X127562926Y-97450349D01*
X127601021Y-97374158D01*
X127677211Y-97336063D01*
X127753402Y-97336063D01*
X127829592Y-97374158D01*
X127867688Y-97450349D01*
X127867688Y-97640825D01*
X127905783Y-97717016D01*
X128096259Y-98097968D02*
X127562926Y-98097968D01*
X128020069Y-98097968D02*
X128058164Y-98136063D01*
X128096259Y-98212254D01*
X128096259Y-98326539D01*
X128058164Y-98402730D01*
X127981973Y-98440825D01*
X127562926Y-98440825D01*
X127562926Y-99164635D02*
X128362926Y-99164635D01*
X127601021Y-99164635D02*
X127562926Y-99088444D01*
X127562926Y-98936063D01*
X127601021Y-98859873D01*
X127639116Y-98821777D01*
X127715307Y-98783682D01*
X127943878Y-98783682D01*
X128020069Y-98821777D01*
X128058164Y-98859873D01*
X128096259Y-98936063D01*
X128096259Y-99088444D01*
X128058164Y-99164635D01*
X126274926Y-78974158D02*
X126693973Y-78974158D01*
X126770164Y-78936063D01*
X126808259Y-78859873D01*
X126808259Y-78707492D01*
X126770164Y-78631301D01*
X126313021Y-78974158D02*
X126274926Y-78897968D01*
X126274926Y-78707492D01*
X126313021Y-78631301D01*
X126389211Y-78593206D01*
X126465402Y-78593206D01*
X126541592Y-78631301D01*
X126579688Y-78707492D01*
X126579688Y-78897968D01*
X126617783Y-78974158D01*
X126808259Y-79355111D02*
X126274926Y-79355111D01*
X126732069Y-79355111D02*
X126770164Y-79393206D01*
X126808259Y-79469397D01*
X126808259Y-79583682D01*
X126770164Y-79659873D01*
X126693973Y-79697968D01*
X126274926Y-79697968D01*
X126503497Y-80650349D02*
X126503497Y-81031301D01*
X126274926Y-80574158D02*
X127074926Y-80840825D01*
X126274926Y-81107492D01*
X127036831Y-81793206D02*
X127074926Y-81717016D01*
X127074926Y-81602730D01*
X127036831Y-81488444D01*
X126960640Y-81412254D01*
X126884450Y-81374158D01*
X126732069Y-81336063D01*
X126617783Y-81336063D01*
X126465402Y-81374158D01*
X126389211Y-81412254D01*
X126313021Y-81488444D01*
X126274926Y-81602730D01*
X126274926Y-81678920D01*
X126313021Y-81793206D01*
X126351116Y-81831301D01*
X126617783Y-81831301D01*
X126617783Y-81678920D01*
X127074926Y-82517016D02*
X127074926Y-82364635D01*
X127036831Y-82288444D01*
X126998735Y-82250349D01*
X126884450Y-82174158D01*
X126732069Y-82136063D01*
X126427307Y-82136063D01*
X126351116Y-82174158D01*
X126313021Y-82212254D01*
X126274926Y-82288444D01*
X126274926Y-82440825D01*
X126313021Y-82517016D01*
X126351116Y-82555111D01*
X126427307Y-82593206D01*
X126617783Y-82593206D01*
X126693973Y-82555111D01*
X126732069Y-82517016D01*
X126770164Y-82440825D01*
X126770164Y-82288444D01*
X126732069Y-82212254D01*
X126693973Y-82174158D01*
X126617783Y-82136063D01*
X126998735Y-82897968D02*
X127036831Y-82936063D01*
X127074926Y-83012254D01*
X127074926Y-83202730D01*
X127036831Y-83278920D01*
X126998735Y-83317016D01*
X126922545Y-83355111D01*
X126846354Y-83355111D01*
X126732069Y-83317016D01*
X126274926Y-82859873D01*
X126274926Y-83355111D01*
X127074926Y-83850349D02*
X127074926Y-83926539D01*
X127036831Y-84002730D01*
X126998735Y-84040825D01*
X126922545Y-84078920D01*
X126770164Y-84117016D01*
X126579688Y-84117016D01*
X126427307Y-84078920D01*
X126351116Y-84040825D01*
X126313021Y-84002730D01*
X126274926Y-83926539D01*
X126274926Y-83850349D01*
X126313021Y-83774158D01*
X126351116Y-83736063D01*
X126427307Y-83697968D01*
X126579688Y-83659873D01*
X126770164Y-83659873D01*
X126922545Y-83697968D01*
X126998735Y-83736063D01*
X127036831Y-83774158D01*
X127074926Y-83850349D01*
X126274926Y-84383682D02*
X126808259Y-84802730D01*
X126808259Y-84383682D02*
X126274926Y-84802730D01*
X126274926Y-85717016D02*
X127074926Y-85717016D01*
X126693973Y-85717016D02*
X126693973Y-86174158D01*
X126274926Y-86174158D02*
X127074926Y-86174158D01*
X126274926Y-86555111D02*
X127074926Y-86555111D01*
X127074926Y-86745587D01*
X127036831Y-86859873D01*
X126960640Y-86936063D01*
X126884450Y-86974158D01*
X126732069Y-87012254D01*
X126617783Y-87012254D01*
X126465402Y-86974158D01*
X126389211Y-86936063D01*
X126313021Y-86859873D01*
X126274926Y-86745587D01*
X126274926Y-86555111D01*
X126274926Y-87355111D02*
X127074926Y-87355111D01*
X126503497Y-87621777D01*
X127074926Y-87888444D01*
X126274926Y-87888444D01*
X126274926Y-88269397D02*
X127074926Y-88269397D01*
X126808259Y-89145587D02*
X126808259Y-89450349D01*
X127074926Y-89259873D02*
X126389211Y-89259873D01*
X126313021Y-89297968D01*
X126274926Y-89374158D01*
X126274926Y-89450349D01*
X126274926Y-89831301D02*
X126313021Y-89755111D01*
X126351116Y-89717016D01*
X126427307Y-89678920D01*
X126655878Y-89678920D01*
X126732069Y-89717016D01*
X126770164Y-89755111D01*
X126808259Y-89831301D01*
X126808259Y-89945587D01*
X126770164Y-90021777D01*
X126732069Y-90059873D01*
X126655878Y-90097968D01*
X126427307Y-90097968D01*
X126351116Y-90059873D01*
X126313021Y-90021777D01*
X126274926Y-89945587D01*
X126274926Y-89831301D01*
X127074926Y-90936063D02*
X126274926Y-91202730D01*
X127074926Y-91469397D01*
X127036831Y-92155111D02*
X127074926Y-92078920D01*
X127074926Y-91964635D01*
X127036831Y-91850349D01*
X126960640Y-91774158D01*
X126884450Y-91736063D01*
X126732069Y-91697968D01*
X126617783Y-91697968D01*
X126465402Y-91736063D01*
X126389211Y-91774158D01*
X126313021Y-91850349D01*
X126274926Y-91964635D01*
X126274926Y-92040825D01*
X126313021Y-92155111D01*
X126351116Y-92193206D01*
X126617783Y-92193206D01*
X126617783Y-92040825D01*
X126503497Y-92497968D02*
X126503497Y-92878920D01*
X126274926Y-92421777D02*
X127074926Y-92688444D01*
X126274926Y-92955111D01*
X126503497Y-93793206D02*
X126503497Y-94174158D01*
X126274926Y-93717016D02*
X127074926Y-93983682D01*
X126274926Y-94250349D01*
X126274926Y-94859873D02*
X127074926Y-94859873D01*
X126313021Y-94859873D02*
X126274926Y-94783682D01*
X126274926Y-94631301D01*
X126313021Y-94555111D01*
X126351116Y-94517016D01*
X126427307Y-94478920D01*
X126655878Y-94478920D01*
X126732069Y-94517016D01*
X126770164Y-94555111D01*
X126808259Y-94631301D01*
X126808259Y-94783682D01*
X126770164Y-94859873D01*
X126274926Y-95583682D02*
X126693973Y-95583682D01*
X126770164Y-95545587D01*
X126808259Y-95469397D01*
X126808259Y-95317016D01*
X126770164Y-95240825D01*
X126313021Y-95583682D02*
X126274926Y-95507492D01*
X126274926Y-95317016D01*
X126313021Y-95240825D01*
X126389211Y-95202730D01*
X126465402Y-95202730D01*
X126541592Y-95240825D01*
X126579688Y-95317016D01*
X126579688Y-95507492D01*
X126617783Y-95583682D01*
X126808259Y-95964635D02*
X126008259Y-95964635D01*
X126770164Y-95964635D02*
X126808259Y-96040825D01*
X126808259Y-96193206D01*
X126770164Y-96269397D01*
X126732069Y-96307492D01*
X126655878Y-96345587D01*
X126427307Y-96345587D01*
X126351116Y-96307492D01*
X126313021Y-96269397D01*
X126274926Y-96193206D01*
X126274926Y-96040825D01*
X126313021Y-95964635D01*
X126808259Y-96574158D02*
X126808259Y-96878920D01*
X127074926Y-96688444D02*
X126389211Y-96688444D01*
X126313021Y-96726539D01*
X126274926Y-96802730D01*
X126274926Y-96878920D01*
X126313021Y-97450349D02*
X126274926Y-97374158D01*
X126274926Y-97221777D01*
X126313021Y-97145587D01*
X126389211Y-97107492D01*
X126693973Y-97107492D01*
X126770164Y-97145587D01*
X126808259Y-97221777D01*
X126808259Y-97374158D01*
X126770164Y-97450349D01*
X126693973Y-97488444D01*
X126617783Y-97488444D01*
X126541592Y-97107492D01*
X126274926Y-97831301D02*
X126808259Y-97831301D01*
X126655878Y-97831301D02*
X126732069Y-97869397D01*
X126770164Y-97907492D01*
X126808259Y-97983682D01*
X126808259Y-98059873D01*
X126351116Y-98326539D02*
X126313021Y-98364635D01*
X126274926Y-98326539D01*
X126313021Y-98288444D01*
X126351116Y-98326539D01*
X126274926Y-98326539D01*
X126579688Y-98326539D02*
X127036831Y-98288444D01*
X127074926Y-98326539D01*
X127036831Y-98364635D01*
X126579688Y-98326539D01*
X127074926Y-98326539D01*
X126351116Y-98707492D02*
X126313021Y-98745587D01*
X126274926Y-98707492D01*
X126313021Y-98669397D01*
X126351116Y-98707492D01*
X126274926Y-98707492D01*
X126579688Y-98707492D02*
X127036831Y-98669397D01*
X127074926Y-98707492D01*
X127036831Y-98745587D01*
X126579688Y-98707492D01*
X127074926Y-98707492D01*
X163352410Y-97176512D02*
X162876220Y-97509846D01*
X163352410Y-97747941D02*
X162352410Y-97747941D01*
X162352410Y-97366989D01*
X162400030Y-97271751D01*
X162447649Y-97224131D01*
X162542887Y-97176512D01*
X162685744Y-97176512D01*
X162780982Y-97224131D01*
X162828601Y-97271751D01*
X162876220Y-97366989D01*
X162876220Y-97747941D01*
X162400030Y-96224131D02*
X162352410Y-96319370D01*
X162352410Y-96462227D01*
X162400030Y-96605084D01*
X162495268Y-96700322D01*
X162590506Y-96747941D01*
X162780982Y-96795560D01*
X162923839Y-96795560D01*
X163114315Y-96747941D01*
X163209553Y-96700322D01*
X163304791Y-96605084D01*
X163352410Y-96462227D01*
X163352410Y-96366989D01*
X163304791Y-96224131D01*
X163257172Y-96176512D01*
X162923839Y-96176512D01*
X162923839Y-96366989D01*
X162828601Y-95414608D02*
X162876220Y-95271751D01*
X162923839Y-95224131D01*
X163019077Y-95176512D01*
X163161934Y-95176512D01*
X163257172Y-95224131D01*
X163304791Y-95271751D01*
X163352410Y-95366989D01*
X163352410Y-95747941D01*
X162352410Y-95747941D01*
X162352410Y-95414608D01*
X162400030Y-95319370D01*
X162447649Y-95271751D01*
X162542887Y-95224131D01*
X162638125Y-95224131D01*
X162733363Y-95271751D01*
X162780982Y-95319370D01*
X162828601Y-95414608D01*
X162828601Y-95747941D01*
X163304791Y-94795560D02*
X163352410Y-94652703D01*
X163352410Y-94414608D01*
X163304791Y-94319370D01*
X163257172Y-94271751D01*
X163161934Y-94224131D01*
X163066696Y-94224131D01*
X162971458Y-94271751D01*
X162923839Y-94319370D01*
X162876220Y-94414608D01*
X162828601Y-94605084D01*
X162780982Y-94700322D01*
X162733363Y-94747941D01*
X162638125Y-94795560D01*
X162542887Y-94795560D01*
X162447649Y-94747941D01*
X162400030Y-94700322D01*
X162352410Y-94605084D01*
X162352410Y-94366989D01*
X162400030Y-94224131D01*
X162971458Y-93795560D02*
X162971458Y-93033655D01*
X162971458Y-92557465D02*
X162971458Y-91795560D01*
X162685744Y-91319370D02*
X162971458Y-90557465D01*
X163257172Y-91319370D01*
X162876220Y-89890798D02*
X163352410Y-89890798D01*
X162352410Y-90224131D02*
X162876220Y-89890798D01*
X162352410Y-89557465D01*
X163352410Y-89224131D02*
X162352410Y-89224131D01*
X162352410Y-88843179D01*
X162400030Y-88747941D01*
X162447649Y-88700322D01*
X162542887Y-88652703D01*
X162685744Y-88652703D01*
X162780982Y-88700322D01*
X162828601Y-88747941D01*
X162876220Y-88843179D01*
X162876220Y-89224131D01*
X163352410Y-88224131D02*
X162352410Y-88224131D01*
X162733363Y-88224131D02*
X162685744Y-88128893D01*
X162685744Y-87938417D01*
X162733363Y-87843179D01*
X162780982Y-87795560D01*
X162876220Y-87747941D01*
X163161934Y-87747941D01*
X163257172Y-87795560D01*
X163304791Y-87843179D01*
X163352410Y-87938417D01*
X163352410Y-88128893D01*
X163304791Y-88224131D01*
X163352410Y-87319370D02*
X162352410Y-87319370D01*
X162352410Y-86938417D01*
X162400030Y-86843179D01*
X162447649Y-86795560D01*
X162542887Y-86747941D01*
X162685744Y-86747941D01*
X162780982Y-86795560D01*
X162828601Y-86843179D01*
X162876220Y-86938417D01*
X162876220Y-87319370D01*
X163352410Y-86319370D02*
X162685744Y-86319370D01*
X162876220Y-86319370D02*
X162780982Y-86271751D01*
X162733363Y-86224131D01*
X162685744Y-86128893D01*
X162685744Y-86033655D01*
X163066696Y-84986036D02*
X163066696Y-84509846D01*
X163352410Y-85081274D02*
X162352410Y-84747941D01*
X163352410Y-84414608D01*
X163352410Y-83652703D02*
X162352410Y-83652703D01*
X163304791Y-83652703D02*
X163352410Y-83747941D01*
X163352410Y-83938417D01*
X163304791Y-84033655D01*
X163257172Y-84081274D01*
X163161934Y-84128893D01*
X162876220Y-84128893D01*
X162780982Y-84081274D01*
X162733363Y-84033655D01*
X162685744Y-83938417D01*
X162685744Y-83747941D01*
X162733363Y-83652703D01*
X163352410Y-82747941D02*
X162828601Y-82747941D01*
X162733363Y-82795560D01*
X162685744Y-82890798D01*
X162685744Y-83081274D01*
X162733363Y-83176512D01*
X163304791Y-82747941D02*
X163352410Y-82843179D01*
X163352410Y-83081274D01*
X163304791Y-83176512D01*
X163209553Y-83224131D01*
X163114315Y-83224131D01*
X163019077Y-83176512D01*
X162971458Y-83081274D01*
X162971458Y-82843179D01*
X162923839Y-82747941D01*
X162685744Y-82271751D02*
X163685744Y-82271751D01*
X162733363Y-82271751D02*
X162685744Y-82176512D01*
X162685744Y-81986036D01*
X162733363Y-81890798D01*
X162780982Y-81843179D01*
X162876220Y-81795560D01*
X163161934Y-81795560D01*
X163257172Y-81843179D01*
X163304791Y-81890798D01*
X163352410Y-81986036D01*
X163352410Y-82176512D01*
X163304791Y-82271751D01*
X162685744Y-81509846D02*
X162685744Y-81128893D01*
X162352410Y-81366989D02*
X163209553Y-81366989D01*
X163304791Y-81319370D01*
X163352410Y-81224131D01*
X163352410Y-81128893D01*
X163304791Y-80414608D02*
X163352410Y-80509846D01*
X163352410Y-80700322D01*
X163304791Y-80795560D01*
X163209553Y-80843179D01*
X162828601Y-80843179D01*
X162733363Y-80795560D01*
X162685744Y-80700322D01*
X162685744Y-80509846D01*
X162733363Y-80414608D01*
X162828601Y-80366989D01*
X162923839Y-80366989D01*
X163019077Y-80843179D01*
X163352410Y-79938417D02*
X162685744Y-79938417D01*
X162876220Y-79938417D02*
X162780982Y-79890798D01*
X162733363Y-79843179D01*
X162685744Y-79747941D01*
X162685744Y-79652703D01*
D11*
X144651666Y-84562380D02*
X144651666Y-85276666D01*
X144604047Y-85419523D01*
X144508809Y-85514761D01*
X144365952Y-85562380D01*
X144270714Y-85562380D01*
X145651666Y-85562380D02*
X145080238Y-85562380D01*
X145365952Y-85562380D02*
X145365952Y-84562380D01*
X145270714Y-84705238D01*
X145175476Y-84800476D01*
X145080238Y-84848095D01*
X144542666Y-91842380D02*
X144542666Y-92556666D01*
X144495047Y-92699523D01*
X144399809Y-92794761D01*
X144256952Y-92842380D01*
X144161714Y-92842380D01*
X144971238Y-91937619D02*
X145018857Y-91890000D01*
X145114095Y-91842380D01*
X145352190Y-91842380D01*
X145447428Y-91890000D01*
X145495047Y-91937619D01*
X145542666Y-92032857D01*
X145542666Y-92128095D01*
X145495047Y-92270952D01*
X144923619Y-92842380D01*
X145542666Y-92842380D01*
X138561581Y-86802954D02*
X138228248Y-86326764D01*
X137990152Y-86802954D02*
X137990152Y-85802954D01*
X138371105Y-85802954D01*
X138466343Y-85850574D01*
X138513962Y-85898193D01*
X138561581Y-85993431D01*
X138561581Y-86136288D01*
X138513962Y-86231526D01*
X138466343Y-86279145D01*
X138371105Y-86326764D01*
X137990152Y-86326764D01*
X139513962Y-86802954D02*
X138942533Y-86802954D01*
X139228248Y-86802954D02*
X139228248Y-85802954D01*
X139133009Y-85945812D01*
X139037771Y-86041050D01*
X138942533Y-86088669D01*
X150581556Y-87060628D02*
X150581556Y-86060628D01*
X150819652Y-86060628D01*
X150962509Y-86108248D01*
X151057747Y-86203486D01*
X151105366Y-86298724D01*
X151152985Y-86489200D01*
X151152985Y-86632057D01*
X151105366Y-86822533D01*
X151057747Y-86917771D01*
X150962509Y-87013009D01*
X150819652Y-87060628D01*
X150581556Y-87060628D01*
X152105366Y-87060628D02*
X151533937Y-87060628D01*
X151819652Y-87060628D02*
X151819652Y-86060628D01*
X151724413Y-86203486D01*
X151629175Y-86298724D01*
X151533937Y-86346343D01*
X147247747Y-87380628D02*
X147247747Y-86380628D01*
X147819175Y-87380628D02*
X147390604Y-86809200D01*
X147819175Y-86380628D02*
X147247747Y-86952057D01*
D12*
X149300000Y-84631325D02*
X149550000Y-85064338D01*
X129500000Y-84170000D02*
X129500000Y-75570000D01*
X149550000Y-85064338D02*
X149050000Y-85064338D01*
X160470000Y-84170000D02*
X129500000Y-84170000D01*
X149050000Y-85064338D02*
X149300000Y-84631325D01*
X160470000Y-75570000D02*
X160470000Y-84170000D01*
X149441000Y-92435662D02*
X149191000Y-92868675D01*
X148941000Y-92435662D02*
X149441000Y-92435662D01*
X149191000Y-92868675D02*
X148941000Y-92435662D01*
X129391000Y-101930000D02*
X129391000Y-93330000D01*
X160361000Y-93330000D02*
X160361000Y-101930000D01*
X129391000Y-93330000D02*
X160361000Y-93330000D01*
X141998248Y-90090574D02*
X141998248Y-89760574D01*
X135458248Y-87350574D02*
X141998248Y-87350574D01*
X135458248Y-90090574D02*
X141998248Y-90090574D01*
X135458248Y-89760574D02*
X135458248Y-90090574D01*
X135458248Y-87680574D02*
X135458248Y-87350574D01*
X141998248Y-87350574D02*
X141998248Y-87680574D01*
X153439652Y-87608248D02*
X149199652Y-87608248D01*
X149919652Y-87608248D02*
X149919652Y-89848248D01*
X149799652Y-87608248D02*
X149799652Y-89848248D01*
X153439652Y-89848248D02*
X153439652Y-87608248D01*
X150039652Y-87608248D02*
X150039652Y-89848248D01*
X148549652Y-88728248D02*
X149199652Y-88728248D01*
X149199652Y-87608248D02*
X149199652Y-89848248D01*
X149199652Y-89848248D02*
X153439652Y-89848248D01*
X154089652Y-88728248D02*
X153439652Y-88728248D01*
%LPC*%
D13*
X157485000Y-80450000D03*
X132485000Y-80450000D03*
D14*
X149300000Y-82500000D03*
D15*
X147010000Y-82500000D03*
X144720000Y-82500000D03*
X142430000Y-82500000D03*
X140140000Y-82500000D03*
X150445000Y-80520000D03*
X148155000Y-80520000D03*
X145865000Y-80520000D03*
X143575000Y-80520000D03*
X141285000Y-80520000D03*
X149300000Y-78540000D03*
X147010000Y-78540000D03*
X144720000Y-78540000D03*
X142430000Y-78540000D03*
X140140000Y-78540000D03*
D13*
X157376000Y-97050000D03*
X132376000Y-97050000D03*
D14*
X149191000Y-95000000D03*
D15*
X146901000Y-95000000D03*
X144611000Y-95000000D03*
X142321000Y-95000000D03*
X140031000Y-95000000D03*
X150336000Y-96980000D03*
X148046000Y-96980000D03*
X145756000Y-96980000D03*
X143466000Y-96980000D03*
X141176000Y-96980000D03*
X149191000Y-98960000D03*
X146901000Y-98960000D03*
X144611000Y-98960000D03*
X142321000Y-98960000D03*
X140031000Y-98960000D03*
X134918248Y-88720574D03*
D16*
X142538248Y-88720574D03*
D14*
X147509652Y-88728248D03*
D16*
X155129652Y-88728248D03*
M02*
