M48
; DRILL file {KiCad (6.0.2)} date Sun Jul 31 16:51:22 2022
; FORMAT={-:-/ absolute / metric / decimal}
; #@! TF.CreationDate,2022-07-31T16:51:22-06:00
; #@! TF.GenerationSoftware,Kicad,Pcbnew,(6.0.2)
; #@! TF.FileFunction,Plated,1,2,PTH
FMAT,2
METRIC
; #@! TA.AperFunction,Plated,PTH,ViaDrill
T1C0.400
; #@! TA.AperFunction,Plated,PTH,ViaDrill
T2C0.600
; #@! TA.AperFunction,Plated,PTH,ComponentDrill
T3C0.800
; #@! TA.AperFunction,Plated,PTH,ComponentDrill
T4C1.000
; #@! TA.AperFunction,Plated,PTH,ComponentDrill
T5C3.200
%
G90
G05
T1
X137.202Y-91.808
X151.272Y-85.019
T2
X131.443Y-89.488
T3
X134.918Y-88.721
X142.538Y-88.721
X147.51Y-88.728
X155.13Y-88.728
T4
X140.031Y-95.0
X140.031Y-98.96
X140.14Y-78.54
X140.14Y-82.5
X141.176Y-96.98
X141.285Y-80.52
X142.321Y-95.0
X142.321Y-98.96
X142.43Y-78.54
X142.43Y-82.5
X143.466Y-96.98
X143.575Y-80.52
X144.611Y-95.0
X144.611Y-98.96
X144.72Y-78.54
X144.72Y-82.5
X145.756Y-96.98
X145.865Y-80.52
X146.901Y-95.0
X146.901Y-98.96
X147.01Y-78.54
X147.01Y-82.5
X148.046Y-96.98
X148.155Y-80.52
X149.191Y-95.0
X149.191Y-98.96
X149.3Y-78.54
X149.3Y-82.5
X150.336Y-96.98
X150.445Y-80.52
T5
X132.376Y-97.05
X132.485Y-80.45
X157.376Y-97.05
X157.485Y-80.45
T0
M30
